# xmcd
# 
# Track frame offsets:
#     150
#     17462
#     44380
#     64570
#     84715
#     107982
#     125850
#     147457
#     166237
#     192487
# 
# Disc length: 2887
# 
# Revision: 1
# Processed by: cddbd v1.5.2PL0 Copyright (c) Steve Scherf et al.
# Submitted via: fre:ac v1.0.31
# 
DISCID=8e0b450a
DTITLE=Khánh Hà - KHCD52-Về Đây Em
DYEAR=1999
DGENRE=Pop
TTITLE0=Về Đây Em ©
TTITLE1=Giọt Mưa Thu
TTITLE2=Trăng Sơn Cước
TTITLE3=Người Tình Không Chân Dung
TTITLE4=Lời Cuối
TTITLE5=Đêm ©
TTITLE6=Chiều Tàn
TTITLE7=Phôi Pha
TTITLE8=Gửi Gió Cho Mây Ngàn Bay
TTITLE9=Chiếc Lá Cuối Cùng
EXTD=YEAR: 1999\n
EXTT0=
EXTT1=
EXTT2=
EXTT3=
EXTT4=
EXTT5=
EXTT6=
EXTT7=
EXTT8=
EXTT9=
PLAYORDER=
